<svg xmlns="http://www.w3.org/2000/svg" height="512" viewBox="0 0 511.999 511" width="512"><path d="M140.672 371.816c-5.98-5.98-15.684-5.98-21.668 0L4.488 486.336c-5.984 5.98-5.984 15.684 0 21.668a15.276 15.276 0 0 0 10.836 4.488c3.918 0 7.84-1.496 10.832-4.488l114.516-114.516c5.988-5.984 5.988-15.687 0-21.672zM507.512 4.988C504.57 2.047 500.582.457 496.402.5L305.328 3.941a15.329 15.329 0 0 0-13.933 9.586 15.32 15.32 0 0 0 3.375 16.57l41.25 41.25-220.688 220.688a15.325 15.325 0 0 0 0 21.672l83.457 83.45a15.274 15.274 0 0 0 10.832 4.488c3.922 0 7.844-1.497 10.836-4.489l220.684-220.683 41.254 41.25a15.32 15.32 0 0 0 26.152-10.559l3.45-191.066a15.325 15.325 0 0 0-4.485-11.11zM20.898 423.465c3.922 0 7.844-1.5 10.832-4.492l67.215-67.211c5.985-5.985 5.985-15.688 0-21.672-5.984-5.98-15.683-5.98-21.668 0l-67.215 67.215c-5.984 5.984-5.984 15.687 0 21.672a15.293 15.293 0 0 0 10.836 4.488zm139.836-9.918l-67.218 67.21c-5.985 5.985-5.985 15.688 0 21.673a15.276 15.276 0 0 0 10.836 4.488c3.921 0 7.843-1.496 10.835-4.488l67.215-67.215c5.985-5.985 5.985-15.688 0-21.668-5.984-5.985-15.687-5.985-21.668 0zm0 0" fill="#3e6d41"/></svg>