<svg viewBox="0 0 512 512" xmlns="http://www.w3.org/2000/svg"><path d="M342 402L256 81l-85.887 36.648 85.828 324.832zm0 0" fill="#fa9600"/><path d="M10 212h40v230H10zm452 0h40v230h-40zm0 0" fill="#fad79b"/><path d="M10 442h492v60H10zm0 0" fill="#9a4c14"/><path d="M342 50h120v392H342zm0 0" fill="#5aa096"/><path d="M50 10v432h120V10zm0 0" fill="#f03c32"/><path d="M90 90h40v200H90zm0 0" fill="#e9eaf2"/><path d="M256.633 225.105l-21.457-81.21c-1.41-5.336-6.887-8.524-12.223-7.114-5.34 1.41-8.523 6.883-7.113 12.223 0 0 21.437 81.148 21.457 81.21 1.383 5.243 6.984 8.497 12.223 7.114 5.34-1.414 8.523-6.883 7.113-12.223zM279.41 360.46a9.425 9.425 0 0 0 2.563-.304c5.34-1.414 8.523-6.883 7.113-12.222l-21.188-80.196c-1.414-5.34-6.886-8.523-12.222-7.113-5.34 1.41-8.528 6.883-7.117 12.223 0 0 21.175 80.136 21.191 80.191 1.117 4.234 5.266 7.336 9.66 7.422zm0 0"/><path d="M502 202h-30V50c0-5.523-4.477-10-10-10H342c-5.523 0-10 4.477-10 10v276.031l-66.34-247.62a10.01 10.01 0 0 0-5.285-6.403 9.999 9.999 0 0 0-8.3-.207L180 102.559V10c0-5.523-4.477-10-10-10H50c-5.523 0-10 4.477-10 10v192H10c-5.523 0-10 4.477-10 10v290c0 5.523 4.477 10 10 10h492c5.523 0 10-4.477 10-10V212c0-5.523-4.477-10-10-10zm-10 20v210h-20V222zM352 60h100v372H352zm-20 372h-30.285L332 417.754zM249.324 94.723l80.852 301.789-67.633 31.812-80.55-304.87zM242.828 432H180V194.207zM60 20h100v412H60zM20 222h20v210H20zm472 270H20v-40h472zm0 0"/><path d="M90 300h40c5.523 0 10-4.477 10-10V90c0-5.523-4.477-10-10-10H90c-5.523 0-10 4.477-10 10v200c0 5.523 4.477 10 10 10zm10-200h20v180h-20zM90 60h40c5.523 0 10-4.477 10-10s-4.477-10-10-10H90c-5.523 0-10 4.477-10 10s4.477 10 10 10zm332 182c-5.523 0-10 4.477-10 10v70c0 5.523 4.477 10 10 10s10-4.477 10-10v-70c0-5.523-4.477-10-10-10zm-40-45c-5.512 0-10 4.488-10 10v80c0 5.512 4.488 10 10 10s10-4.488 10-10v-80c0-5.512-4.488-10-10-10zm0-40c-5.512 0-10 4.488-10 10s4.488 10 10 10 10-4.488 10-10-4.488-10-10-10zm40-35c-5.523 0-10 4.477-10 10v80c0 5.523 4.477 10 10 10s10-4.477 10-10v-80c0-5.523-4.477-10-10-10zm0 0"/></svg>