<svg height="512pt" viewBox="0 0 512 512" width="512pt" xmlns="http://www.w3.org/2000/svg"><path d="M512 256c0 141.387-114.613 256-256 256S0 397.387 0 256 114.613 0 256 0s256 114.613 256 256zm0 0" fill="#f73b6c"/><path d="M382.121 449.578v29.246C344.902 499.941 301.863 512 256.004 512c-27.031 0-53.07-4.191-77.531-11.953a254.409 254.409 0 0 1-48.59-21.223v-29.246c0-49.914 38.441-90.863 87.355-94.812 2.57-.211 5.16-.317 7.785-.317h61.95c7.324 0 14.453.817 21.297 2.383 42.296 9.676 73.851 47.531 73.851 92.746zm0 0" fill="#0c85a5"/><path d="M382.125 449.578v29.246c-22.727 12.895-47.617 22.414-74 27.856a255.835 255.835 0 0 1-45.61 5.234c-2.163.055-4.335.086-6.507.086-27.031 0-53.07-4.191-77.531-11.953v-50.469c0-6.742.699-13.324 2.035-19.668 2.718-12.957 8.078-24.93 15.484-35.36 17.242-24.269 45.59-40.1 77.629-40.1h13.352c52.558 0 95.148 42.59 95.148 95.128zm0 0" fill="#1da2dd"/><path d="M255.996 393.395l-42.832 23.8-13.027-60.601 26.613-15.676m29.246 52.477l42.828 23.8 13.031-60.601-26.613-15.676" fill="#c1dce5"/><path d="M289.945 317.8v41.657c0 15.25-10.054 28.14-23.906 32.422a33.968 33.968 0 0 1-10.043 1.516c-18.746 0-33.937-15.196-33.937-33.938v-41.656zm0 0" fill="#eaa27f"/><path d="M289.945 356.816v2.641c0 15.25-10.054 28.14-23.906 32.422-12.496-3.844-21.89-14.707-23.625-28.004a116.144 116.144 0 0 0 25.684-1.309 115.036 115.036 0 0 0 21.847-5.75zM162.89 249.535c0 15.711-11.476 28.742-26.507 31.16a31.688 31.688 0 0 1-5.059.403c-17.437 0-31.562-14.125-31.562-31.563s14.125-31.566 31.562-31.566c1.727 0 3.414.14 5.059.406 15.031 2.418 26.508 15.445 26.508 31.16zm0 0" fill="#f6ba97"/><path d="M162.89 249.535c0 15.711-11.476 28.742-26.507 31.16a117.376 117.376 0 0 1-4.192-31.16c0-10.785 1.461-21.234 4.192-31.16 15.031 2.418 26.508 15.445 26.508 31.16zm0 0" fill="#eaa27f"/><path d="M142.61 249.535c0 6.23-5.051 11.281-11.282 11.281s-11.281-5.05-11.281-11.28c0-6.231 5.05-11.282 11.281-11.282s11.281 5.05 11.281 11.281zm0 0" fill="#eaa27f"/><path d="M349.11 249.535c0 15.711 11.476 28.742 26.507 31.16a31.65 31.65 0 0 0 5.059.403c17.437 0 31.562-14.125 31.562-31.563s-14.125-31.566-31.562-31.566c-1.727 0-3.414.14-5.059.406-15.031 2.418-26.508 15.445-26.508 31.16zm0 0" fill="#f6ba97"/><path d="M349.11 249.535c0 15.711 11.476 28.742 26.507 31.16a117.376 117.376 0 0 0 4.192-31.16c0-10.785-1.461-21.234-4.192-31.16-15.031 2.418-26.508 15.445-26.508 31.16zm0 0" fill="#eaa27f"/><path d="M373.441 188.04v44.722c0 58.441-42.695 106.922-98.593 115.918-.192.03-.387.062-.578.097-5.946.95-12.047 1.418-18.274 1.418-64.855 0-117.437-52.578-117.437-117.433v-44.723c0-13.656 2.332-26.781 6.636-38.977 16.059-45.703 59.61-78.468 110.801-78.468h.012c6.215 0 12.328.48 18.285 1.418 56.172 8.777 99.148 57.386 99.148 116.027zm0 0" fill="#eaa27f"/><path d="M391.953 249.535c0 6.23-5.05 11.281-11.281 11.281s-11.281-5.05-11.281-11.28c0-6.231 5.05-11.282 11.28-11.282s11.282 5.05 11.282 11.281zm0 0" fill="#eaa27f"/><path d="M373.441 188.04v44.722c0 58.441-42.695 106.922-98.593 115.918-.192.03-.387.062-.578.097-56.172-8.777-99.137-57.386-99.137-116.015v-44.723c0-58.64 42.976-107.25 99.16-116.027 56.172 8.777 99.148 57.386 99.148 116.027zm0 0" fill="#f6ba97"/><path d="M227.441 228.797h72.446v34.45H227.44zm28.555 69.117c-9.832 0-19.668-2.465-28.629-7.39a5.22 5.22 0 0 1-2.062-7.094 5.22 5.22 0 0 1 7.093-2.063c14.778 8.125 32.422 8.121 47.2 0a5.224 5.224 0 0 1 5.031 9.156c-8.961 4.926-18.797 7.391-28.633 7.391zm0 0" fill="#eaa27f"/><path d="M269.32 266.781h-26.644a5.746 5.746 0 0 1-5.746-5.746 5.743 5.743 0 0 1 5.746-5.746h26.644a5.743 5.743 0 0 1 5.746 5.746 5.746 5.746 0 0 1-5.746 5.746zm0 0" fill="#eaa27f"/><path d="M370.91 224.117l-2.402-69.828C295 179.188 246.035 190.945 214.98 185.637c43.532-8.32 77.332-37.348 78.106-38.016-.91.379-50.531 20.637-81.406 26.77-14.485 2.875-29.184-4.606-34.985-18.192-.043-.07-.074-.156-.105-.226 0 0-3.625 62.398-40.219 62.398 0 0-44.937-152.262 32.906-129.273 0 0 22.516-20.68 56.133-32.434.125-.043.25-.082.387-.137.363-.136.738-.261 1.117-.375.395-.125.773-.25 1.129-.375 35.547-11.726 82.766-12.949 128.793 29.664 91.43 84.637 14.074 138.676 14.074 138.676zm0 0" fill="#ffe05c"/><path d="M211.68 174.39c-14.485 2.876-29.184-4.605-34.985-18.19-.043-.071-.074-.157-.105-.227 0 0-3.625 62.398-40.219 62.398 0 0-44.937-152.262 32.906-129.273 0 0 22.516-20.68 56.133-32.434-46.133 16.8-33.972 117.727-13.73 117.727zm0 0" fill="#e89f18"/><path d="M242.996 231.14c0 21.43-17.367 38.798-38.789 38.798a38.86 38.86 0 0 1-9.402-1.149c-16.887-4.2-29.395-19.457-29.395-37.648 0-18.18 12.508-33.438 29.395-37.637a38.668 38.668 0 0 1 9.402-1.149c21.422 0 38.79 17.364 38.79 38.786zm103.684 0c0 21.43-17.368 38.798-38.785 38.798a38.87 38.87 0 0 1-9.407-1.149c-16.875-4.2-29.383-19.457-29.383-37.648 0-18.18 12.508-33.438 29.383-37.637a38.676 38.676 0 0 1 9.407-1.149c21.418 0 38.785 17.364 38.785 38.786zm0 0" fill="#fff"/><path d="M224.188 231.14c0 18.192-12.508 33.45-29.383 37.65-16.887-4.2-29.395-19.458-29.395-37.65 0-18.18 12.508-33.437 29.395-37.636 16.875 4.2 29.382 19.457 29.382 37.637zm103.683 0c0 18.192-12.508 33.45-29.383 37.65-16.875-4.2-29.383-19.458-29.383-37.65 0-18.18 12.508-33.437 29.383-37.636 16.875 4.2 29.383 19.457 29.383 37.637zm0 0" fill="#c1dce5"/><g fill="#2f373b"><path d="M204.203 276.117c-24.797 0-44.969-20.176-44.969-44.972s20.172-44.97 44.97-44.97 44.968 20.173 44.968 44.97-20.172 44.972-44.969 44.972zm0-77.578c-17.98 0-32.605 14.625-32.605 32.606s14.629 32.605 32.605 32.605c17.98 0 32.606-14.625 32.606-32.605 0-17.977-14.625-32.606-32.606-32.606zm103.687 77.578c-24.796 0-44.972-20.176-44.972-44.972s20.176-44.97 44.973-44.97 44.968 20.173 44.968 44.97-20.171 44.972-44.968 44.972zm0-77.578c-17.98 0-32.605 14.625-32.605 32.606s14.625 32.605 32.606 32.605c17.976 0 32.605-14.625 32.605-32.605 0-17.977-14.625-32.606-32.605-32.606zm0 0"/><path d="M242.992 224.96h26.11v12.368h-26.11zm130.446-20.214v13.426l-25.18 10.66-4.817-11.39zm-205.34 12.695l-4.82 11.391-24.723-10.469v-13.418zm62.89 13.704c0 7.359-5.965 13.324-13.32 13.324-7.36 0-13.324-5.965-13.324-13.324 0-7.356 5.965-13.32 13.324-13.32 7.355 0 13.32 5.964 13.32 13.32zm76.668 0c0 7.359-5.965 13.324-13.32 13.324-7.36 0-13.324-5.965-13.324-13.324 0-7.356 5.965-13.32 13.324-13.32 7.355 0 13.32 5.964 13.32 13.32zm0 0"/></g><path d="M228.273 228.797a5.71 5.71 0 1 1-11.417-.005 5.71 5.71 0 0 1 11.417.005zm77.325 0a5.71 5.71 0 1 1-11.42-.006 5.71 5.71 0 0 1 11.42.006zm0 0" fill="#fff"/></svg>