<svg xmlns="http://www.w3.org/2000/svg" viewBox="0 0 505.058 505.058"><path d="M435.634 123.521l9.546 11.281 4.339-14.753c10.414-29.505 13.017-39.919 7.81-52.068-5.207-11.281-14.753-21.695-26.902-27.769-19.091-9.546-33.844-7.81-72.027 7.81l-17.356 7.81L358.4 64.51c41.654 19.961 46.861 23.432 77.234 59.011zm-11.281-66.82c8.678 4.339 15.62 11.281 19.092 19.091 1.736 5.207 1.736 8.678-3.471 25.166-20.827-23.431-31.241-31.241-55.539-43.39 22.562-7.809 29.504-5.206 39.918-.867zm-43.39 173.559c-1.736-26.902-12.149-50.332-31.241-68.556-18.224-17.356-41.654-26.034-70.292-26.034-28.637 0-51.2 8.678-70.292 26.034-21.695 20.827-33.844 44.258-35.58 68.556l-.868 9.546h210.007l-1.734-9.546zm-189.18-7.81c3.471-16.488 13.017-32.976 28.637-47.729s34.712-21.695 59.01-21.695c25.166 0 43.39 6.942 59.01 21.695 13.885 13.017 22.563 28.637 25.166 47.729H191.783z"/><path d="M366.21 327.454l-2.603 4.339c-8.678 15.62-20.827 27.769-32.976 35.58-13.885 7.81-29.505 12.149-46.861 12.149-16.488 0-32.108-3.471-45.993-12.149-13.885-8.678-25.166-19.959-32.976-33.844-6.075-11.281-11.281-21.695-13.017-32.976h310.671l.868-7.81v-26.902c0-39.919-1.736-78.97-19.959-113.681C504.191 94.885 500.72 51.496 472.95 22.858c-14.753-13.886-39.052-19.96-72.896-17.357-32.108 1.736-66.82 11.281-105.003 27.769-5.207-.868-9.546-.868-14.753-.868-52.068 0-90.251 16.488-144.054 49.464-40.786 25.166-81.573 58.142-110.21 129.302l13.885 9.546c26.034-22.563 54.671-44.258 82.441-62.481-32.976 33.844-45.125 53.803-59.01 76.366l-2.603 4.339c-21.695 35.58-37.315 68.556-46.861 98.061C4.339 366.505 0 394.274 0 418.572c0 26.034 6.075 45.125 18.224 57.275 16.488 16.488 38.183 24.298 64.217 24.298 26.902 0 59.01-8.678 97.193-26.034 31.241 14.753 65.953 22.563 101.532 22.563 49.464 0 95.458-14.753 135.376-43.39 39.051-28.637 67.688-66.82 84.176-114.549l4.339-11.281H366.21zm39.051 111.078c-36.447 26.902-78.969 40.786-124.963 40.786-34.712 0-67.688-7.81-98.061-22.563l-3.471-2.603-3.471 1.736c-67.688 32.976-115.417 35.58-144.054 6.942-9.546-7.81-13.885-23.43-13.885-44.258 0-22.563 4.339-48.597 13.885-77.234 8.678-27.769 24.298-59.878 45.125-93.722l2.603-4.339c15.62-24.298 28.637-45.993 72.027-88.515l10.414-10.414c9.546-10.414 14.753-16.488 18.224-19.092l-9.546-14.753c-33.844 15.62-73.763 41.654-110.21 71.159 25.166-42.522 55.539-65.953 85.912-85.044 50.332-30.373 86.78-46.861 134.508-46.861 5.207 0 10.414 0 15.62.868h2.603l2.603-.868c36.447-16.488 70.292-26.034 100.664-27.77 28.637-1.736 48.597 2.603 59.01 13.017 23.43 23.431 25.166 62.481 5.207 114.549l-1.736 3.471 1.736 3.471c18.224 32.109 19.959 68.556 19.959 109.342v17.356H173.559v8.678c0 18.224 7.81 33.844 15.62 50.332 9.546 16.488 22.563 30.373 39.051 39.919 16.488 9.546 35.58 14.753 55.539 14.753 19.959 0 39.051-5.207 55.539-14.753 13.885-8.678 26.034-21.695 36.447-38.183h103.268c-15.62 39.054-40.786 70.294-73.762 94.593z"/><path d="M76.366 336.999l-6.942-19.092-8.678 17.356c-27.77 55.539-43.39 91.119-14.753 118.888 10.414 10.414 20.827 14.753 34.712 14.753 18.224 0 40.786-7.81 70.292-20.827l14.753-6.942-13.885-8.678c-44.258-26.902-58.143-47.729-75.499-95.458zM58.142 441.135c-15.62-14.753-13.885-32.976 9.546-80.705 13.885 33.844 28.637 54.671 61.614 76.366-40.787 17.356-57.275 18.224-71.16 4.339z"/></svg>