<svg xmlns="http://www.w3.org/2000/svg" viewBox="0 0 480 480"><path d="M240 0C107.452 0 0 107.452 0 240s107.452 240 240 240 240-107.452 240-240C479.85 107.514 372.486.15 240 0zm0 464C116.288 464 16 363.712 16 240S116.288 16 240 16s224 100.288 224 224c-.141 123.653-100.347 223.859-224 224z"/><path d="M240 32C125.125 32 32 125.125 32 240s93.125 208 208 208 208-93.125 208-208c-.128-114.822-93.178-207.872-208-208zm0 400c-106.039 0-192-85.961-192-192S133.961 48 240 48s192 85.961 192 192c-.123 105.987-86.013 191.877-192 192z"/><path d="M56 232h32v16H56zm336 0h32v16h-32zM76.64 325.086l27.716-15.997 7.998 13.858-27.715 15.996zM367.642 157.07l27.715-15.997 7.999 13.858-27.716 15.996zm-290.993-2.143l7.998-13.858 27.715 15.997-7.998 13.857zm290.998 167.964l7.999-13.858 27.715 15.997-7.998 13.858zM141.042 84.65l13.858-8 15.997 27.715-13.858 7.999zM232 56h16v32h-16zm77.066 48.354l15.996-27.715 13.858 7.998-15.997 27.716zM60.194 200.097l4.14-15.454 23.182 6.211-4.14 15.454zm332.229 89.026l4.141-15.455 23.182 6.212-4.141 15.454zM104.237 115.547l11.314-11.313 16.97 16.97-11.313 11.314zm80.377-51.199l15.454-4.14 6.211 23.181-15.454 4.141zm89.055 19.082l6.21-23.182 15.455 4.141-6.21 23.182zm73.81 37.797l16.97-16.97 11.314 11.313-16.97 16.97zm45.037 69.629l23.182-6.211 4.14 15.454-23.18 6.211zM60.194 279.892l23.182-6.212 4.14 15.455-23.181 6.211zm213.749-171.525c-72.737-18.735-146.889 25.041-165.625 97.777A136 136 0 0 0 122.2 307.999a8 8 0 1 0 13.848-8c-33.098-57.418-13.382-130.795 44.036-163.893 57.418-33.098 130.795-13.382 163.893 44.036a119.999 119.999 0 0 1 12.24 89.873 8.006 8.006 0 0 0 15.504 4v-.024c18.735-72.736-25.042-146.888-97.778-165.624z"/><path d="M357.064 297.808l-88-72a7.494 7.494 0 0 0-.744-.4c-8.031-15.689-27.259-21.897-42.947-13.866-15.689 8.031-21.897 27.259-13.866 42.947a31.914 31.914 0 0 0 26.573 17.319l111.2 39.72A7.885 7.885 0 0 0 352 312a8.001 8.001 0 0 0 5.064-14.192zM240 256c-8.837 0-16-7.163-16-16s7.163-16 16-16 16 7.163 16 16-7.163 16-16 16zm21.8 7.296a31.807 31.807 0 0 0 9.072-15.336l40.328 32.952-49.4-17.616zM272 320h-64c-22.091 0-40 17.909-40 40s17.909 40 40 40h64c22.091 0 40-17.909 40-40s-17.909-40-40-40zm0 64h-64c-13.255 0-24-10.745-24-24s10.745-24 24-24h64c13.255 0 24 10.745 24 24s-10.745 24-24 24z"/><path d="M224 352h-16a8 8 0 0 0 0 16h16a8 8 0 0 0 0-16zm48 0h-16a8 8 0 0 0 0 16h16a8 8 0 0 0 0-16z"/></svg>