<svg xmlns="http://www.w3.org/2000/svg" viewBox="0 0 512 512"><circle cx="201.587" cy="136.282" r="136.282" fill="#d0eeef"/><circle cx="201.587" cy="136.282" r="85.803" fill="#a0dddf"/><path d="M415.846 254.695c-17.037 0-30.848 13.811-30.848 30.848h-11.217c0-17.037-13.811-30.848-30.848-30.848s-30.848 13.811-30.848 30.848h-11.218c0-17.037-13.811-30.848-30.848-30.848s-30.848 13.811-30.848 30.848h-11.218V131.806c0-17.037-13.811-30.848-30.848-30.848s-30.848 13.811-30.848 30.848v312.889c0 37.018 30.287 67.305 67.305 67.305H379.39c37.018 0 67.305-30.287 67.305-67.305V285.543c-.001-17.037-13.81-30.848-30.849-30.848z" fill="#eea0b6"/></svg>