<svg xmlns="http://www.w3.org/2000/svg" viewBox="0 0 512 512"><path d="M50 502h144c22.091 0 40-17.909 40-40V318c0-22.091-17.909-40-40-40H50c-22.091 0-40 17.909-40 40v144c0 22.091 17.909 40 40 40z" fill="#8fe5df"/><path d="M318 234h144c22.091 0 40-17.909 40-40V50c0-22.091-17.909-40-40-40H318c-22.091 0-40 17.909-40 40v144c0 22.091 17.909 40 40 40z" fill="#92e5e0"/><path d="M318 502h144c22.091 0 40-17.909 40-40V318c0-22.091-17.909-40-40-40H318c-22.091 0-40 17.909-40 40v144c0 22.091 17.909 40 40 40zM50 234h144c22.091 0 40-17.909 40-40V50c0-22.091-17.909-40-40-40H50c-22.091 0-40 17.909-40 40v144c0 22.091 17.909 40 40 40z" fill="#daf6f4"/><path d="M175.991 121.937c11.623-8.129 15.413-23.726 8.337-35.982-7.087-12.274-22.524-16.786-35.387-10.744C147.713 61.081 136.1 50 121.948 50c-14.173 0-25.799 11.114-26.998 25.274-12.851-6.002-28.254-1.485-35.33 10.771-7.087 12.274-3.275 27.899 8.389 36.018-11.623 8.129-15.413 23.726-8.337 35.982 7.087 12.274 22.524 16.786 35.387 10.744C96.287 182.919 107.9 194 122.052 194c14.173 0 25.799-11.114 26.998-25.274 12.851 6.002 28.254 1.485 35.33-10.771 7.087-12.275 3.275-27.899-8.389-36.018z" fill="#fe8f8d"/><circle cx="122" cy="122" r="21.18" fill="#fff"/><path d="M443.991 389.937c11.623-8.129 15.413-23.726 8.337-35.982-7.087-12.274-22.524-16.786-35.387-10.744C415.713 329.081 404.1 318 389.948 318c-14.173 0-25.799 11.114-26.998 25.274-12.851-6.002-28.254-1.485-35.33 10.771-7.087 12.274-3.275 27.899 8.389 36.018-11.623 8.129-15.413 23.726-8.337 35.982 7.087 12.274 22.524 16.786 35.387 10.744C364.287 450.919 375.9 462 390.052 462c14.173 0 25.799-11.114 26.998-25.274 12.851 6.002 28.254 1.485 35.33-10.771 7.087-12.275 3.275-27.899-8.389-36.018z" fill="#fe8f8d"/><circle cx="390" cy="390" r="21.18" fill="#fff"/><path d="M194 268H50c-27.57 0-50 22.43-50 50v144c0 27.57 22.43 50 50 50h144c27.57 0 50-22.43 50-50V318c0-27.57-22.43-50-50-50zm30 194c0 16.542-13.458 30-30 30H50c-16.542 0-30-13.458-30-30V318c0-16.542 13.458-30 30-30h144c16.542 0 30 13.458 30 30v144zm238-194H318c-27.57 0-50 22.43-50 50v144c0 27.57 22.43 50 50 50h144c27.57 0 50-22.43 50-50V318c0-27.57-22.43-50-50-50zm30 194c0 16.542-13.458 30-30 30H318c-16.542 0-30-13.458-30-30V318c0-16.542 13.458-30 30-30h144c16.542 0 30 13.458 30 30v144zM192.988 80.955c-7.536-13.054-22.35-19.852-36.878-18.082C150.462 49.276 137.298 40 121.948 40c-15.072 0-28.365 9.427-34.099 22.896-14.597-1.907-29.215 4.854-36.89 18.148-7.536 13.053-6.019 29.279 2.779 40.979-8.951 11.689-10.402 27.728-2.728 41.021 7.536 13.054 22.342 19.854 36.879 18.082C93.538 194.724 106.702 204 122.052 204c15.072 0 28.365-9.427 34.099-22.896 14.598 1.91 29.215-4.854 36.89-18.148 7.536-13.053 6.019-29.279-2.779-40.979 8.95-11.69 10.401-27.728 2.726-41.022zm-17.268 72c-4.383 7.592-14.238 10.542-22.438 6.71a10.005 10.005 0 0 0-9.241.406 9.996 9.996 0 0 0-4.954 7.811C138.32 176.92 130.838 184 122.052 184c-8.767 0-16.247-7.062-17.029-16.077a10 10 0 0 0-14.214-8.185c-8.213 3.855-18.083.916-22.477-6.693-4.383-7.592-2.008-17.601 5.408-22.787a10.002 10.002 0 0 0-.018-16.403c-7.444-5.182-9.834-15.202-5.441-22.811 4.384-7.592 14.24-10.54 22.438-6.71a9.999 9.999 0 0 0 14.195-8.217C105.68 67.08 113.162 60 121.948 60c8.767 0 16.247 7.062 17.03 16.077a10 10 0 0 0 14.214 8.185c8.209-3.854 18.082-.917 22.476 6.693 4.383 7.592 2.008 17.601-5.408 22.787a10.002 10.002 0 0 0 .018 16.403c7.445 5.181 9.834 15.201 5.442 22.81z"/><path d="M122 90.823c-17.191 0-31.178 13.986-31.178 31.177s13.986 31.177 31.178 31.177 31.178-13.986 31.178-31.177S139.191 90.823 122 90.823zm0 42.354c-6.163 0-11.178-5.014-11.178-11.177s5.015-11.177 11.178-11.177c6.163 0 11.178 5.014 11.178 11.177 0 6.163-5.015 11.177-11.178 11.177zm338.988 215.778c-7.536-13.054-22.35-19.855-36.879-18.082C418.462 317.276 405.298 308 389.948 308c-15.072 0-28.365 9.428-34.099 22.896-14.596-1.907-29.215 4.855-36.89 18.148-7.536 13.053-6.019 29.279 2.779 40.979-8.951 11.689-10.402 27.729-2.728 41.021 7.538 13.055 22.346 19.854 36.879 18.082C361.538 462.725 374.702 472 390.052 472c15.072 0 28.365-9.428 34.099-22.896 14.595 1.907 29.215-4.855 36.89-18.148 7.536-13.053 6.019-29.279-2.779-40.979 8.95-11.69 10.401-27.729 2.726-41.022zm-17.268 72c-4.383 7.591-14.238 10.54-22.438 6.71a10.005 10.005 0 0 0-9.241.406 9.996 9.996 0 0 0-4.954 7.811C406.32 444.92 398.838 452 390.052 452c-8.767 0-16.246-7.062-17.029-16.076a10.002 10.002 0 0 0-14.214-8.187c-8.211 3.858-18.084.916-22.477-6.692-4.383-7.592-2.008-17.602 5.408-22.788a10 10 0 0 0-.018-16.401c-7.444-5.183-9.835-15.201-5.441-22.811 4.383-7.591 14.24-10.539 22.438-6.71a9.996 9.996 0 0 0 9.241-.406 9.996 9.996 0 0 0 4.954-7.811c.766-9.038 8.248-16.118 17.034-16.118 8.767 0 16.247 7.062 17.03 16.077a10.003 10.003 0 0 0 14.215 8.185c8.211-3.857 18.081-.915 22.475 6.693 4.383 7.592 2.008 17.602-5.408 22.788a10 10 0 0 0 .018 16.401c7.445 5.183 9.835 15.202 5.442 22.811z"/><path d="M390 358.822c-17.191 0-31.178 13.986-31.178 31.178s13.986 31.178 31.178 31.178 31.178-13.986 31.178-31.178-13.987-31.178-31.178-31.178zm0 42.356c-6.163 0-11.178-5.015-11.178-11.178s5.015-11.178 11.178-11.178 11.178 5.015 11.178 11.178-5.015 11.178-11.178 11.178zM194 0H50C22.43 0 0 22.43 0 50v144c0 27.57 22.43 50 50 50h144c27.57 0 50-22.43 50-50V50c0-27.57-22.43-50-50-50zm30 194c0 16.542-13.458 30-30 30H50c-16.542 0-30-13.458-30-30V50c0-16.542 13.458-30 30-30h144c16.542 0 30 13.458 30 30v144zM392.604 55.174c-10.377-.72-20.275 2.785-27.855 9.861-7.475 6.977-11.762 16.84-11.762 27.062 0 5.523 4.478 10 10 10s10-4.477 10-10c0-4.767 1.921-9.186 5.408-12.441 3.483-3.251 8.048-4.864 12.833-4.529 8.395.579 15.162 7.346 15.741 15.742.401 5.819-2.135 11.373-6.785 14.857C387.356 115.337 380 129.761 380 145.297v.573c0 5.523 4.478 10 10 10s10-4.477 10-10v-.573c0-9.178 4.438-17.768 12.176-23.565 10.104-7.569 15.617-19.622 14.747-32.24-1.263-18.302-16.017-33.056-34.319-34.318zM390 168.92c-2.63 0-5.21 1.06-7.07 2.93a10.058 10.058 0 0 0-2.93 7.07c0 2.63 1.069 5.21 2.93 7.07s4.44 2.93 7.07 2.93 5.21-1.07 7.069-2.93a10.077 10.077 0 0 0 2.931-7.07c0-2.64-1.07-5.21-2.931-7.07a10.029 10.029 0 0 0-7.069-2.93z"/><path d="M462 0H318c-27.57 0-50 22.43-50 50v144c0 27.57 22.43 50 50 50h144c27.57 0 50-22.43 50-50V50c0-27.57-22.43-50-50-50zm30 194c0 16.542-13.458 30-30 30H318c-16.542 0-30-13.458-30-30V50c0-16.542 13.458-30 30-30h144c16.542 0 30 13.458 30 30v144zM124.604 323.174c-10.373-.707-20.275 2.787-27.855 9.861-7.475 6.977-11.762 16.841-11.762 27.062 0 5.522 4.478 10 10 10s10-4.478 10-10c0-4.768 1.921-9.186 5.408-12.44 3.483-3.252 8.04-4.856 12.832-4.529 8.396.579 15.163 7.347 15.742 15.742.401 5.818-2.135 11.372-6.785 14.856C119.357 383.337 112 397.761 112 413.298v.572c0 5.522 4.478 10 10 10s10-4.478 10-10v-.572c0-9.179 4.438-17.769 12.177-23.566 10.104-7.569 15.616-19.622 14.746-32.239-1.263-18.303-16.017-33.056-34.319-34.319zM122 436.91c-2.63 0-5.21 1.069-7.07 2.939a10.06 10.06 0 0 0-2.93 7.07c0 2.63 1.069 5.21 2.93 7.07 1.86 1.859 4.44 2.92 7.07 2.92s5.21-1.061 7.069-2.92a10.077 10.077 0 0 0 2.931-7.07c0-2.64-1.07-5.21-2.931-7.07A10.038 10.038 0 0 0 122 436.91z"/></svg>