<svg xmlns="http://www.w3.org/2000/svg" viewBox="0 0 512.001 512.001"><path d="M448.346 428.487h5.641c4.2 0 7.604-3.405 7.604-7.604v-33.457a7.604 7.604 0 0 0-7.604-7.604h-24.391l5.502-46.91a7.603 7.603 0 0 0-6.666-8.437c-4.169-.494-7.949 2.495-8.438 6.666l-5.71 48.682h-29.418l6.736-65.088a7.603 7.603 0 0 0-7.563-8.386h-22.045a159.847 159.847 0 0 0-22.62-46.122l68.693 6.813c5.108.507 9.693 2.988 12.909 6.987s4.661 9.008 4.063 14.105l-2.386 20.333a7.604 7.604 0 0 0 15.104 1.772l2.386-20.333c1.078-9.183-1.523-18.207-7.319-25.41-5.797-7.203-14.056-11.674-23.257-12.586l-83.754-8.308a159.701 159.701 0 0 0-16.462-15.316l-19.702-96.115c18.787-13.142 31.107-34.922 31.107-59.538C320.755 32.581 288.175 0 248.126 0c-40.047 0-72.629 32.581-72.629 72.629 0 21.464 9.366 40.776 24.218 54.083l-4.87 19.014a222.819 222.819 0 0 0-4.343 21.248l-20.807-54.183c-4.196-10.928-14.881-18.271-26.588-18.271-8.827 0-17.007 3.989-22.442 10.944-5.435 6.955-7.329 15.856-5.196 24.421l20.214 81.156c-16.282 8.491-31.125 19.821-43.818 33.646-27.073 29.485-41.983 67.784-41.983 107.841 0 87.932 71.538 159.47 159.47 159.47 60.454 0 113.159-33.809 140.199-83.512h27.613c-8.518 8.874-13.771 20.907-13.771 34.151 0 27.218 22.144 49.363 49.362 49.363 27.219 0 49.363-22.144 49.363-49.363-.001-13.243-5.253-25.275-13.772-34.15zm-72.74-106.932l-6.03 58.267h-3.089a159.765 159.765 0 0 0 2.346-27.293c0-10.55-1.047-20.911-3.042-30.973h9.815zm-84.37-105.917a158.494 158.494 0 0 0-34.936-15.555V173.94a7.605 7.605 0 0 0-15.208 0v126.22h-38.017v-99.042c0-17.398 2.189-34.765 6.506-51.619l3.415-13.332a72.138 72.138 0 0 0 35.13 9.091 72.236 72.236 0 0 0 27.565-5.448l15.545 75.828zm-50.146 99.73v14.447c0 10.481-8.528 19.009-19.009 19.009s-19.009-8.528-19.009-19.009v-14.447h38.018zM190.705 72.629c0-31.662 25.759-57.421 57.421-57.421s57.422 25.759 57.422 57.421-25.759 57.421-57.422 57.421c-31.662 0-57.421-25.759-57.421-57.421zm-60.478 53.582a13.19 13.19 0 0 1 2.421-11.382 13.192 13.192 0 0 1 10.458-5.1c5.456 0 10.435 3.422 12.39 8.514l29.442 76.666a158.656 158.656 0 0 0-35.195 9.657l-19.516-78.355zm79.126 370.58c-79.547 0-144.262-64.716-144.262-144.262 0-36.238 13.487-70.884 37.977-97.556 12.742-13.878 27.877-24.973 44.525-32.867.168-.074.333-.153.493-.237a143.44 143.44 0 0 1 39.78-12.019v19.439c-30.945 5.396-59.198 22.561-78.307 47.805a7.605 7.605 0 0 0 12.126 9.18c16.253-21.472 40.027-36.291 66.181-41.516v85.059c0 18.867 15.35 34.217 34.217 34.217s34.217-15.35 34.217-34.217v-76.65c38.045 17.996 62.936 56.64 62.936 99.365 0 60.589-49.293 109.882-109.882 109.882-60.589 0-109.882-49.293-109.882-109.882 0-16.081 3.391-31.574 10.081-46.048a7.605 7.605 0 0 0-13.806-6.38c-7.62 16.488-11.484 34.128-11.484 52.428 0 68.975 56.115 125.09 125.09 125.09s125.09-56.115 125.09-125.09c0-51.029-31.186-96.96-78.144-115.977v-20.479c57.779 19.836 97.327 74.58 97.327 136.455-.001 79.544-64.721 144.26-144.273 144.26zm147.445-83.512a158.35 158.35 0 0 0 6.275-18.25h83.311v18.25h-33.492c-.046 0-.091-.003-.137-.003-.046 0-.091.003-.137.003h-55.82zm55.957 83.513c-18.832 0-34.154-15.321-34.154-34.155 0-18.787 15.247-34.076 34.017-34.151h.273c18.77.074 34.018 15.364 34.018 34.151 0 18.833-15.321 34.155-34.154 34.155z"/><path d="M412.755 440.046c-12.456 0-22.591 10.135-22.591 22.591s10.135 22.592 22.591 22.592c12.457 0 22.592-10.135 22.592-22.592s-10.135-22.591-22.592-22.591zm0 29.975c-4.072 0-7.383-3.312-7.383-7.384s3.312-7.383 7.383-7.383 7.384 3.312 7.384 7.383-3.313 7.384-7.384 7.384z"/></svg>