<svg xmlns="http://www.w3.org/2000/svg" width="441.453" height="441.453"><path d="M65.685 174.325h-22.31c-19.766 0-35.859 16.093-35.859 35.859v192.369c0 5.279 4.284 9.562 9.562 9.562h74.913c5.279 0 9.562-4.283 9.562-9.562V210.184c-.009-19.766-16.093-35.859-35.868-35.859zm11.953 223.446H31.422c-5.278 0-9.562-4.283-9.562-9.562V210.184c0-11.858 9.658-21.516 21.516-21.516h22.319c11.858 0 21.516 9.658 21.516 21.516v178.025c-.01 5.279-4.285 9.562-9.573 9.562zm43.175-226.822v231.604c0 5.279 4.284 9.562 9.562 9.562h74.913c5.278 0 9.562-4.283 9.562-9.562V170.949c0-19.766-16.094-35.859-35.859-35.859h-22.319c-19.766-.001-35.859 16.093-35.859 35.859zm79.694 217.26c0 5.279-4.284 9.562-9.562 9.562H144.72c-5.279 0-9.562-4.283-9.562-9.562v-217.26c0-11.857 9.658-21.516 21.516-21.516h22.319c11.857 0 21.516 9.658 21.516 21.516v217.26zm69.472-298.542c-19.766 0-35.859 16.094-35.859 35.859v277.026c0 5.279 4.283 9.562 9.562 9.562h74.912c5.278 0 9.562-4.283 9.562-9.562V125.527c0-19.766-16.094-35.859-35.859-35.859h-22.318zm34.271 308.104h-46.225c-5.279 0-9.562-4.283-9.562-9.562V125.527c0-11.857 9.658-21.516 21.516-21.516h22.318c11.857 0 21.516 9.658 21.516 21.516v262.682c-.001 5.279-4.285 9.562-9.563 9.562zm79.024-341.563c-19.766 0-35.859 16.094-35.859 35.859v310.485c0 5.279 4.284 9.562 9.562 9.562h74.913c5.278 0 9.562-4.283 9.562-9.562V92.058c0-19.766-16.094-35.859-35.859-35.859h-22.319v.009zm34.273 341.563h-46.226c-5.278 0-9.562-4.283-9.562-9.562V92.058c0-11.857 9.658-21.516 21.516-21.516h22.319c11.857 0 21.516 9.658 21.516 21.516v296.151a9.56 9.56 0 0 1-9.563 9.562zM9.907 143.858a27.186 27.186 0 0 0 17.203 6.158c8.157 0 15.797-3.605 20.971-9.897 0 0 1.444-1.76 3.222-3.94 1.779-2.171 4.676-2.18 6.464 0l3.242 3.93c4.954 6.043 12.871 9.648 21.162 9.648 6.33 0 12.364-2.104 16.992-5.9 11.561-9.496 13.225-26.622 3.739-38.164l-7.191-8.759c-3.356-4.083-3.356-10.7 0-14.774l7.191-8.75c4.59-5.594 6.741-12.642 6.034-19.861-.688-7.21-4.169-13.703-9.773-18.312-4.628-3.806-10.662-5.891-16.992-5.891-8.291 0-16.208 3.605-21.181 9.63l-3.232 3.939c-1.789 2.171-4.676 2.171-6.455 0l-3.222-3.939c-4.963-6.034-12.871-9.639-21.162-9.639-6.35 0-12.383 2.104-17.012 5.91C3.615 40.411.01 48.052.01 56.199c0 6.245 2.18 12.364 6.158 17.213l7.191 8.75c3.356 4.083 3.356 10.7 0 14.774l-7.21 8.769A27.236 27.236 0 0 0 0 122.897c0 8.128 3.605 15.769 9.907 20.961zM31.92 96.926c3.356-4.083 3.347-10.691 0-14.774L17.241 64.308c-1.884-2.324-2.897-5.135-2.897-8.119 0-3.834 1.702-7.44 4.647-9.869 2.314-1.903 5.116-2.917 8.109-2.917 3.844 0 7.449 1.702 9.878 4.657l11.475 13.971c3.347 4.083 8.788 4.083 12.135 0L72.072 48.06c4.074-4.972 12.976-5.862 17.987-1.759a12.7 12.7 0 0 1 4.59 8.616 12.66 12.66 0 0 1-2.859 9.352L77.131 82.123c-3.356 4.083-3.347 10.701 0 14.774L91.81 114.75c2.161 2.63 3.156 5.958 2.84 9.362a12.664 12.664 0 0 1-4.609 8.616c-5.001 4.15-13.856 3.232-17.968-1.769l-11.484-13.952c-3.356-4.083-8.798-4.074-12.145 0l-11.465 13.961c-4.313 5.24-12.756 6.043-17.968 1.778a12.793 12.793 0 0 1-4.667-9.897c0-2.983.985-5.776 2.897-8.1L31.92 96.926z"/></svg>