<svg xmlns="http://www.w3.org/2000/svg" width="47.518" height="47.518"><path d="M0 42.375h18.622V14.44H0v27.935zm9.704-1.4a.898.898 0 1 1 .003-1.797.898.898 0 0 1-.003 1.797zM2.693 17.132h13.238l-.001 20.61H2.693v-20.61z"/><path d="M9.21 7.771h29.842v12.11h2.63V5.143H6.581v8.103H9.21zm10.612 17.887h13.829v2.627H19.822zm15.189-4.757V41.94h12.507V20.901H35.011zm6.531.871a.303.303 0 0 1 0 .605.303.303 0 0 1 0-.605zm-1.8 1.009h3.599v.289h-3.599v-.289zm1.682 18.248a.72.72 0 1 1 0-1.442.72.72 0 0 1 0 1.442zm4.087-2.476c-3.248.018-6.883.03-8.493.018V24.105l8.493-.003v14.451zm-21.883-9.192h-3.806v1.595h9.27v.696h-9.27v1.442h13.83v-3.733h-9.023z"/></svg>