<svg viewBox="0 0 512 512" xmlns="http://www.w3.org/2000/svg"><path d="m342 402-86-321-85.886719 36.648438 85.828125 324.832031zm0 0" fill="#fa9600"/><path d="m10 212h40v230h-40zm0 0" fill="#fad79b"/><path d="m462 212h40v230h-40zm0 0" fill="#fad79b"/><path d="m10 442h492v60h-492zm0 0" fill="#9a4c14"/><path d="m342 50h120v392h-120zm0 0" fill="#5aa096"/><path d="m50 10v432h120v-432zm0 0" fill="#f03c32"/><path d="m90 90h40v200h-40zm0 0" fill="#e9eaf2"/><path d="m256.632812 225.105469-21.457031-81.210938c-1.410156-5.335937-6.886719-8.523437-12.222656-7.113281-5.339844 1.410156-8.523437 6.882812-7.113281 12.222656 0 0 21.4375 81.148438 21.457031 81.210938 1.382813 5.242187 6.984375 8.496094 12.222656 7.113281 5.339844-1.414063 8.523438-6.882813 7.113281-12.222656zm0 0"/><path d="m279.410156 360.460938c.851563.015624 1.710938-.082032 2.5625-.304688 5.339844-1.414062 8.523438-6.882812 7.113282-12.222656l-21.1875-80.195313c-1.414063-5.339843-6.886719-8.523437-12.222657-7.113281-5.339843 1.410156-8.527343 6.882812-7.117187 12.222656 0 0 21.175781 80.136719 21.191406 80.191406 1.117188 4.234376 5.265625 7.335938 9.660156 7.421876zm0 0"/><path d="m502 202h-30v-152c0-5.523438-4.476562-10-10-10h-120c-5.523438 0-10 4.476562-10 10v276.03125l-66.339844-247.621094c-.75-2.796875-2.679687-5.132812-5.285156-6.402344-2.605469-1.269531-5.632812-1.34375-8.300781-.207031l-72.074219 30.757813v-92.558594c0-5.523438-4.476562-10-10-10h-120c-5.523438 0-10 4.476562-10 10v192h-30c-5.523438 0-10 4.476562-10 10v290c0 5.523438 4.476562 10 10 10h492c5.523438 0 10-4.476562 10-10v-290c0-5.523438-4.476562-10-10-10zm-10 20v210h-20v-210zm-140-162h100v372h-100zm-20 372h-30.285156l30.285156-14.246094zm-82.675781-337.277344 80.851562 301.789063-67.632812 31.8125-80.550781-304.871094zm-6.496094 337.277344h-62.828125v-237.792969zm-182.828125-412h100v412h-100zm-40 202h20v210h-20zm472 270h-472v-40h472zm0 0"/><path d="m90 300h40c5.523438 0 10-4.476562 10-10v-200c0-5.523438-4.476562-10-10-10h-40c-5.523438 0-10 4.476562-10 10v200c0 5.523438 4.476562 10 10 10zm10-200h20v180h-20zm0 0"/><path d="m90 60h40c5.523438 0 10-4.476562 10-10s-4.476562-10-10-10h-40c-5.523438 0-10 4.476562-10 10s4.476562 10 10 10zm0 0"/><path d="m422 242c-5.523438 0-10 4.476562-10 10v70c0 5.523438 4.476562 10 10 10s10-4.476562 10-10v-70c0-5.523438-4.476562-10-10-10zm0 0"/><path d="m382 197c-5.511719 0-10 4.488281-10 10v80c0 5.511719 4.488281 10 10 10s10-4.488281 10-10v-80c0-5.511719-4.488281-10-10-10zm0 0"/><path d="m382 157c-5.511719 0-10 4.488281-10 10s4.488281 10 10 10 10-4.488281 10-10-4.488281-10-10-10zm0 0"/><path d="m422 122c-5.523438 0-10 4.476562-10 10v80c0 5.523438 4.476562 10 10 10s10-4.476562 10-10v-80c0-5.523438-4.476562-10-10-10zm0 0"/></svg>