<?xml version="1.0" encoding="iso-8859-1"?>
<!-- Generator: Adobe Illustrator 19.0.0, SVG Export Plug-In . SVG Version: 6.00 Build 0)  -->
<svg version="1.1" id="Layer_1" xmlns="http://www.w3.org/2000/svg" xmlns:xlink="http://www.w3.org/1999/xlink" x="0px" y="0px"
	 viewBox="0 0 512 512" style="enable-background:new 0 0 512 512;" xml:space="preserve">
<circle style="fill:#D0EEEF;" cx="201.587" cy="136.282" r="136.282"/>
<circle style="fill:#A0DDDF;" cx="201.587" cy="136.282" r="85.803"/>
<path style="fill:#EEA0B6;" d="M415.846,254.695c-17.037,0-30.848,13.811-30.848,30.848h-11.217
	c0-17.037-13.811-30.848-30.848-30.848c-17.037,0-30.848,13.811-30.848,30.848h-11.218c0-17.037-13.811-30.848-30.848-30.848
	s-30.848,13.811-30.848,30.848h-11.218V131.806c0-17.037-13.811-30.848-30.848-30.848s-30.848,13.811-30.848,30.848v312.889
	c0,37.018,30.287,67.305,67.305,67.305h145.828c37.018,0,67.305-30.287,67.305-67.305V285.543
	C446.694,268.506,432.885,254.695,415.846,254.695z"/>
<g>
</g>
<g>
</g>
<g>
</g>
<g>
</g>
<g>
</g>
<g>
</g>
<g>
</g>
<g>
</g>
<g>
</g>
<g>
</g>
<g>
</g>
<g>
</g>
<g>
</g>
<g>
</g>
<g>
</g>
</svg>
