<?xml version="1.0" encoding="iso-8859-1"?>
<!-- Generator: Adobe Illustrator 19.0.0, SVG Export Plug-In . SVG Version: 6.00 Build 0)  -->
<svg version="1.1" id="Layer_1" xmlns="http://www.w3.org/2000/svg" xmlns:xlink="http://www.w3.org/1999/xlink" x="0px" y="0px"
	 viewBox="0 0 512.001 512.001" style="enable-background:new 0 0 512.001 512.001;" xml:space="preserve">
<g>
	<g>
		<path d="M448.346,428.487h5.641c4.2,0,7.604-3.405,7.604-7.604v-33.457c0-4.199-3.404-7.604-7.604-7.604h-24.391l5.502-46.91
			c0.489-4.171-2.496-7.949-6.666-8.437c-4.169-0.494-7.949,2.495-8.438,6.666l-5.71,48.682h-29.418l6.736-65.088
			c0.222-2.141-0.474-4.276-1.917-5.875c-1.442-1.599-3.494-2.511-5.646-2.511h-22.045c-5.033-16.604-12.716-32.165-22.62-46.122
			l68.693,6.813c5.108,0.507,9.693,2.988,12.909,6.987s4.661,9.008,4.063,14.105l-2.386,20.333
			c-0.489,4.171,2.496,7.949,6.666,8.438c0.301,0.036,0.6,0.053,0.896,0.053c3.803,0,7.088-2.849,7.542-6.719l2.386-20.333
			c1.078-9.183-1.523-18.207-7.319-25.41c-5.797-7.203-14.056-11.674-23.257-12.586l-83.754-8.308
			c-5.109-5.473-10.608-10.593-16.462-15.316l-19.702-96.115c18.787-13.142,31.107-34.922,31.107-59.538
			C320.755,32.581,288.175,0,248.126,0c-40.047,0-72.629,32.581-72.629,72.629c0,21.464,9.366,40.776,24.218,54.083l-4.87,19.014
			c-1.796,7.01-3.238,14.103-4.343,21.248l-20.807-54.183c-4.196-10.928-14.881-18.271-26.588-18.271
			c-8.827,0-17.007,3.989-22.442,10.944c-5.435,6.955-7.329,15.856-5.196,24.421l20.214,81.156
			c-16.282,8.491-31.125,19.821-43.818,33.646c-27.073,29.485-41.983,67.784-41.983,107.841c0,87.932,71.538,159.47,159.47,159.47
			c60.454,0,113.159-33.809,140.199-83.512h27.613c-8.518,8.874-13.771,20.907-13.771,34.151c0,27.218,22.144,49.363,49.362,49.363
			c27.219,0,49.363-22.144,49.363-49.363C462.117,449.394,456.865,437.362,448.346,428.487z M375.606,321.555l-6.03,58.267h-3.089
			c1.537-8.871,2.346-17.989,2.346-27.293c0-10.55-1.047-20.911-3.042-30.973H375.606z M291.236,215.638
			c-10.82-6.483-22.519-11.74-34.936-15.555V173.94c0-4.199-3.405-7.604-7.604-7.604c-4.199,0-7.604,3.405-7.604,7.604v126.22
			h-38.017v-98.735c0.001-0.054,0-0.107,0-0.161v-0.146c0-17.398,2.189-34.765,6.506-51.619l3.415-13.332
			c10.416,5.785,22.392,9.091,35.13,9.091c9.754,0,19.059-1.946,27.565-5.448L291.236,215.638z M241.09,315.368v14.447
			c0,10.481-8.528,19.009-19.009,19.009c-10.481,0-19.009-8.528-19.009-19.009v-14.447h0.001H241.09z M190.705,72.629
			c0-31.662,25.759-57.421,57.421-57.421c31.662,0,57.422,25.759,57.422,57.421s-25.759,57.421-57.422,57.421
			C216.464,130.05,190.705,104.291,190.705,72.629z M130.227,126.211c-0.995-3.992-0.112-8.14,2.421-11.382
			c2.533-3.241,6.345-5.1,10.458-5.1c5.456,0,10.435,3.422,12.39,8.514l29.442,76.666c-12.138,1.867-23.937,5.12-35.195,9.657
			L130.227,126.211z M209.353,496.791c-79.547,0-144.262-64.716-144.262-144.262c0-36.238,13.487-70.884,37.977-97.556
			c12.742-13.878,27.877-24.973,44.525-32.867c0.168-0.074,0.333-0.153,0.493-0.237c12.532-5.884,25.916-9.947,39.78-12.019v19.439
			c-30.945,5.396-59.198,22.561-78.307,47.805c-2.535,3.349-1.875,8.118,1.473,10.653c1.373,1.039,2.985,1.542,4.584,1.542
			c2.3,0,4.574-1.039,6.069-3.015c16.253-21.472,40.027-36.291,66.181-41.516v85.059c0,18.867,15.35,34.217,34.217,34.217
			s34.217-15.35,34.217-34.217v-76.65c38.045,17.996,62.936,56.64,62.936,99.365c0,60.589-49.293,109.882-109.882,109.882
			c-60.589,0-109.882-49.293-109.882-109.882c0-16.081,3.391-31.574,10.081-46.048c1.762-3.812,0.099-8.331-3.713-10.093
			c-3.814-1.761-8.331-0.1-10.093,3.713c-7.62,16.488-11.484,34.128-11.484,52.428c0,68.975,56.115,125.09,125.09,125.09
			s125.09-56.115,125.09-125.09c0-51.029-31.186-96.96-78.144-115.977v-20.479c57.779,19.836,97.327,74.58,97.327,136.455
			C353.625,432.075,288.905,496.791,209.353,496.791z M356.798,413.279c2.445-5.914,4.546-12.005,6.275-18.25h83.311v18.25h-33.492
			c-0.046,0-0.091-0.003-0.137-0.003c-0.046,0-0.091,0.003-0.137,0.003H356.798z M412.755,496.792
			c-18.832,0-34.154-15.321-34.154-34.155c0-18.787,15.247-34.076,34.017-34.151h0.273c18.77,0.074,34.018,15.364,34.018,34.151
			C446.909,481.47,431.588,496.792,412.755,496.792z"/>
	</g>
</g>
<g>
	<g>
		<path d="M412.755,440.046c-12.456,0-22.591,10.135-22.591,22.591s10.135,22.592,22.591,22.592
			c12.457,0,22.592-10.135,22.592-22.592S425.212,440.046,412.755,440.046z M412.755,470.021c-4.072,0-7.383-3.312-7.383-7.384
			s3.312-7.383,7.383-7.383c4.071,0,7.384,3.312,7.384,7.383S416.826,470.021,412.755,470.021z"/>
	</g>
</g>
<g>
</g>
<g>
</g>
<g>
</g>
<g>
</g>
<g>
</g>
<g>
</g>
<g>
</g>
<g>
</g>
<g>
</g>
<g>
</g>
<g>
</g>
<g>
</g>
<g>
</g>
<g>
</g>
<g>
</g>
</svg>
